<svg width="60" height="55" viewBox="0 0 60 55" fill="none" xmlns="http://www.w3.org/2000/svg">
<path d="M8.00003 32.9972H24V45.8295H8.00003V32.9972Z" fill="url(#paint0_linear_5_24)"/>
<path d="M3.3 24.2713L14 32.9972V45.8295L3.3 54.5554C2.005 55.5729 0 54.725 0 53.1622V25.6645C0 24.0971 2.005 23.2539 3.3 24.2713Z" fill="url(#paint1_linear_5_24)"/>
<path d="M14 32.9972H22V45.8295H14V32.9972Z" fill="url(#paint2_linear_5_24)"/>
<path opacity="0.2" d="M2.01 25.2017C2.12 25.2017 2.22 25.2383 2.315 25.3116L13 34.0238L13.43 34.3721H22.5V44.4546H13.43L13 44.8029L2.32 53.5151C2.22 53.5885 2.12 53.6205 2.01 53.6205C1.845 53.6205 1.5 53.5105 1.5 53.1622V25.6645C1.5 25.527 1.55 25.4216 1.645 25.3391C1.745 25.2521 1.88 25.2017 2.01 25.2017ZM2.01 23.8268C0.98 23.8268 0 24.5692 0 25.6645V53.1622C0 54.2576 0.98 55 2.01 55C2.455 55 2.91 54.8625 3.3 54.5555L14 45.8295H24V32.9973H14L3.3 24.2713C2.91 23.9643 2.455 23.8268 2.01 23.8268Z" fill="#424242"/>
<path d="M55.9999 53.1347H25.425C23.215 53.1347 21.425 51.494 21.425 49.4684V29.3309C21.425 27.3052 23.215 25.6645 25.425 25.6645H55.9999C58.2099 25.6645 59.9999 27.3052 59.9999 29.3309V49.4684C59.9999 51.494 58.2099 53.1347 55.9999 53.1347Z" fill="url(#paint3_radial_5_24)"/>
<path d="M25.385 47.9651H41.28C41.675 47.9651 42 48.263 42 48.6251V48.8359C42 49.198 41.675 49.4959 41.28 49.4959H25.385C24.99 49.4959 24.665 49.198 24.665 48.8359V48.6251C24.67 48.263 24.99 47.9651 25.385 47.9651Z" fill="#0288D1"/>
<path d="M25.385 45.2154H41.28C41.675 45.2154 42 45.5133 42 45.8753V46.0862C42 46.4482 41.675 46.7461 41.28 46.7461H25.385C24.99 46.7461 24.665 46.4482 24.665 46.0862V45.8753C24.67 45.5133 24.99 45.2154 25.385 45.2154Z" fill="#0288D1"/>
<path d="M25.385 42.4656H41.28C41.675 42.4656 42 42.7635 42 43.1256V43.3364C42 43.6984 41.675 43.9963 41.28 43.9963H25.385C24.99 43.9963 24.665 43.6984 24.665 43.3364V43.1256C24.67 42.7635 24.99 42.4656 25.385 42.4656Z" fill="#0288D1"/>
<path opacity="0.2" d="M55.9999 27.0394C57.3799 27.0394 58.4999 28.066 58.4999 29.3309V49.4684C58.4999 50.7333 57.3799 51.7598 55.9999 51.7598H25.425C24.045 51.7598 22.925 50.7333 22.925 49.4684V29.3309C22.925 28.066 24.045 27.0394 25.425 27.0394H55.9999ZM55.9999 25.6645H25.425C23.215 25.6645 21.425 27.3052 21.425 29.3309V49.4684C21.425 51.494 23.215 53.1347 25.425 53.1347H55.9999C58.2099 53.1347 59.9999 51.494 59.9999 49.4684V29.3309C59.9999 27.3052 58.2099 25.6645 55.9999 25.6645Z" fill="#424242"/>
<path d="M22 0C13.165 0 5.99998 6.56737 5.99998 14.6654C5.99998 22.7635 13.165 29.3309 22 29.3309C30.835 29.3309 38 22.7635 38 14.6654C38 6.56737 30.84 0 22 0ZM24.175 8.69386L25.745 4.02383C25.835 3.75802 26.145 3.61136 26.43 3.70761C28.105 4.27589 29.675 5.16957 31.015 6.40238C32.55 7.80935 33.605 9.48212 34.195 11.2603C34.28 11.517 34.11 11.7873 33.83 11.8607L28.73 13.231C28.455 13.3043 28.165 13.1668 28.08 12.9193C27.785 12.0486 27.265 11.2236 26.51 10.5362C25.905 9.98167 25.21 9.5692 24.47 9.28506C24.22 9.18882 24.095 8.93217 24.175 8.69386ZM10.165 10.3208C10.785 8.89551 11.73 7.55728 12.99 6.40238C14.35 5.15582 15.94 4.25298 17.63 3.68928C17.915 3.59303 18.23 3.74885 18.315 4.01466L19.815 8.70761C19.89 8.94134 19.765 9.1934 19.52 9.28964C18.785 9.57378 18.095 9.98625 17.495 10.5362C16.965 11.022 16.55 11.5719 16.245 12.1586C16.135 12.374 15.86 12.4702 15.615 12.4015L10.505 10.9578C10.215 10.8753 10.05 10.582 10.165 10.3208ZM20.12 20.7424L18.55 25.4033C18.465 25.6645 18.16 25.8112 17.88 25.7241C16.095 25.165 14.415 24.2346 12.99 22.9285C11.665 21.714 10.695 20.2933 10.075 18.7809C9.96997 18.5197 10.135 18.231 10.43 18.1485L15.545 16.7736C15.8 16.7049 16.08 16.8103 16.185 17.0348C16.49 17.6719 16.925 18.2722 17.5 18.7947C18.175 19.4134 18.97 19.8625 19.81 20.1466C20.065 20.2383 20.2 20.5041 20.12 20.7424ZM19.35 17.0944C17.885 15.7516 17.885 13.5747 19.35 12.2319C20.815 10.8891 23.19 10.8891 24.655 12.2319C26.12 13.5747 26.12 15.7516 24.655 17.0944C23.19 18.4372 20.815 18.4372 19.35 17.0944ZM34.17 18.1531C33.575 19.8992 32.525 21.5444 31.02 22.9285C29.52 24.3034 27.735 25.2612 25.84 25.8066C25.56 25.8891 25.26 25.7333 25.18 25.4766L23.685 20.7974C23.605 20.5499 23.75 20.2841 24.02 20.2016C24.93 19.9267 25.79 19.4592 26.515 18.7947C27.265 18.1072 27.785 17.2869 28.08 16.4207C28.165 16.1686 28.465 16.0312 28.74 16.1091L33.82 17.5481C34.09 17.6306 34.255 17.901 34.17 18.1531Z" fill="url(#paint4_radial_5_24)"/>
<path d="M49 7.33274C42.925 7.33274 38 11.8469 38 17.4152C38 22.9835 42.925 27.4977 49 27.4977C55.075 27.4977 60 22.9835 60 17.4152C60 11.8469 55.075 7.33274 49 7.33274ZM50.495 13.3089L51.575 10.1008C51.635 9.91752 51.85 9.8167 52.045 9.88086C53.195 10.2704 54.275 10.8845 55.2 11.7324C56.255 12.6994 56.98 13.8497 57.385 15.0688C57.445 15.2429 57.33 15.4308 57.135 15.4812L53.63 16.4253C53.44 16.4757 53.24 16.3841 53.18 16.2099C52.975 15.6095 52.62 15.0458 52.1 14.5692C51.685 14.1888 51.205 13.9047 50.695 13.7076C50.525 13.648 50.44 13.4739 50.495 13.3089ZM40.86 14.4271C41.29 13.4464 41.935 12.5298 42.8 11.7324C43.735 10.8754 44.825 10.2567 45.99 9.86711C46.185 9.80295 46.4 9.90836 46.46 10.0917L47.49 13.3181C47.54 13.4785 47.455 13.6526 47.29 13.7168C46.785 13.9139 46.31 14.1934 45.9 14.5738C45.535 14.9084 45.25 15.2887 45.04 15.692C44.965 15.8387 44.775 15.9074 44.61 15.857L41.095 14.8625C40.895 14.8075 40.785 14.6059 40.86 14.4271ZM47.705 21.5949L46.625 24.7984C46.565 24.9771 46.355 25.0779 46.165 25.0183C44.935 24.6334 43.78 23.9918 42.805 23.0935C41.895 22.2594 41.225 21.2832 40.8 20.2429C40.725 20.0642 40.84 19.8625 41.045 19.8075L44.565 18.8634C44.74 18.8176 44.93 18.8909 45.005 19.0422C45.215 19.4821 45.515 19.8946 45.91 20.2521C46.375 20.6783 46.92 20.9853 47.5 21.1824C47.67 21.2466 47.76 21.4299 47.705 21.5949ZM47.235 19.0376C46.26 18.1439 46.26 16.6911 47.235 15.7974C48.21 14.9038 49.795 14.9038 50.77 15.7974C51.745 16.6911 51.745 18.1439 50.77 19.0376C49.79 19.9313 48.21 19.9313 47.235 19.0376ZM57.365 19.8121C56.955 21.0128 56.235 22.1448 55.2 23.0935C54.17 24.0376 52.94 24.6975 51.64 25.0733C51.445 25.1283 51.24 25.0229 51.185 24.8442L50.155 21.627C50.1 21.4574 50.2 21.2741 50.385 21.2191C51.01 21.0312 51.6 20.7104 52.1 20.2521C52.615 19.78 52.975 19.2163 53.175 18.6205C53.235 18.4464 53.44 18.3547 53.625 18.4051L57.115 19.3951C57.31 19.4546 57.425 19.638 57.365 19.8121Z" fill="url(#paint5_radial_5_24)"/>
<g opacity="0.2">
<path d="M55 43.9963C55.55 43.9963 56 44.4088 56 44.9129C56 45.417 55.55 45.8295 55 45.8295C54.45 45.8295 54 45.417 54 44.9129C54 44.4088 54.45 43.9963 55 43.9963ZM55 43.0797C53.895 43.0797 53 43.9001 53 44.9129C53 45.9257 53.895 46.7461 55 46.7461C56.105 46.7461 57 45.9257 57 44.9129C57 43.9001 56.105 43.0797 55 43.0797Z" fill="#424242"/>
<path d="M55 47.6627C55.55 47.6627 56 48.0752 56 48.5793C56 49.0834 55.55 49.4959 55 49.4959C54.45 49.4959 54 49.0834 54 48.5793C54 48.0752 54.45 47.6627 55 47.6627ZM55 46.7461C53.895 46.7461 53 47.5665 53 48.5793C53 49.5921 53.895 50.4125 55 50.4125C56.105 50.4125 57 49.5921 57 48.5793C57 47.5665 56.105 46.7461 55 46.7461Z" fill="#424242"/>
</g>
<path d="M55 45.8295C55.5523 45.8295 56 45.4191 56 44.9129C56 44.4067 55.5523 43.9963 55 43.9963C54.4477 43.9963 54 44.4067 54 44.9129C54 45.4191 54.4477 45.8295 55 45.8295Z" fill="url(#paint6_linear_5_24)"/>
<path d="M55 49.4959C55.5523 49.4959 56 49.0855 56 48.5793C56 48.0731 55.5523 47.6627 55 47.6627C54.4477 47.6627 54 48.0731 54 48.5793C54 49.0855 54.4477 49.4959 55 49.4959Z" fill="url(#paint7_linear_5_24)"/>
<path opacity="0.2" d="M22 1.37489C29.995 1.37489 36.5 7.3373 36.5 14.6654C36.5 21.9936 29.995 27.956 22 27.956C14.005 27.956 7.49998 21.9936 7.49998 14.6654C7.49998 7.3373 14.01 1.37489 22 1.37489ZM22 0C13.165 0 5.99998 6.56737 5.99998 14.6654C5.99998 22.7635 13.165 29.3309 22 29.3309C30.835 29.3309 38 22.7635 38 14.6654C38 6.56737 30.84 0 22 0Z" fill="#424242"/>
<path opacity="0.2" d="M49 8.70762C54.24 8.70762 58.5 12.6123 58.5 17.4152C58.5 22.2182 54.24 26.1228 49 26.1228C43.76 26.1228 39.5 22.2182 39.5 17.4152C39.5 12.6123 43.765 8.70762 49 8.70762ZM49 7.33274C42.925 7.33274 38 11.8469 38 17.4152C38 22.9835 42.925 27.4977 49 27.4977C55.075 27.4977 60 22.9835 60 17.4152C60 11.8469 55.075 7.33274 49 7.33274Z" fill="#424242"/>
<path opacity="0.2" d="M17.8 3.66178C18.03 3.66178 18.24 3.80385 18.31 4.01466L19.81 8.70761C19.885 8.94134 19.76 9.1934 19.515 9.28964C18.78 9.57378 18.09 9.98625 17.49 10.5362C16.96 11.022 16.545 11.5719 16.24 12.1632C16.155 12.3327 15.965 12.429 15.77 12.429C15.715 12.429 15.665 12.4198 15.61 12.406L10.5 10.9624C10.205 10.8799 10.045 10.5866 10.16 10.3254C10.78 8.90009 11.725 7.56187 12.985 6.40696C14.345 5.1604 15.935 4.25756 17.625 3.69386C17.685 3.67094 17.745 3.66178 17.8 3.66178ZM26.255 3.68011C26.315 3.68011 26.375 3.68927 26.43 3.70761C28.105 4.27589 29.675 5.16957 31.015 6.40238C32.55 7.80935 33.605 9.48212 34.195 11.2603C34.28 11.517 34.11 11.7873 33.83 11.8607L28.73 13.231C28.68 13.2447 28.63 13.2493 28.58 13.2493C28.355 13.2493 28.15 13.121 28.08 12.9148C27.785 12.044 27.265 11.2191 26.51 10.5316C25.905 9.97708 25.21 9.56462 24.47 9.28047C24.22 9.18423 24.1 8.92759 24.175 8.69386L25.745 4.02383C25.82 3.8176 26.03 3.68011 26.255 3.68011ZM22 11.2282C22.96 11.2282 23.92 11.5628 24.65 12.2365C26.115 13.5793 26.115 15.7562 24.65 17.099C23.92 17.7681 22.96 18.1072 22 18.1072C21.04 18.1072 20.08 17.7727 19.35 17.099C17.885 15.7562 17.885 13.5793 19.35 12.2365C20.085 11.5628 21.045 11.2282 22 11.2282ZM28.575 16.0907C28.625 16.0907 28.68 16.0999 28.735 16.1137L33.815 17.5527C34.095 17.6306 34.255 17.901 34.17 18.1576C33.575 19.9038 32.525 21.549 31.02 22.9331C29.52 24.308 27.735 25.2658 25.84 25.8112C25.79 25.8249 25.74 25.8341 25.685 25.8341C25.455 25.8341 25.245 25.692 25.175 25.4812L23.68 20.802C23.6 20.5545 23.745 20.2887 24.015 20.2062C24.925 19.9312 25.785 19.4638 26.51 18.7993C27.26 18.1118 27.78 17.2915 28.075 16.4253C28.145 16.2191 28.355 16.0907 28.575 16.0907ZM15.695 16.7553C15.9 16.7553 16.095 16.8607 16.18 17.0348C16.485 17.6719 16.92 18.2722 17.495 18.7947C18.17 19.4134 18.965 19.8625 19.805 20.1467C20.065 20.2337 20.195 20.4995 20.115 20.7424L18.55 25.4033C18.48 25.6141 18.27 25.7516 18.045 25.7516C17.99 25.7516 17.935 25.7424 17.88 25.7287C16.095 25.1696 14.415 24.2392 12.99 22.9331C11.665 21.7186 10.695 20.2979 10.075 18.7855C9.96997 18.5243 10.135 18.2356 10.43 18.1531L15.545 16.7782C15.59 16.7644 15.645 16.7553 15.695 16.7553ZM17.8 3.20348C17.68 3.20348 17.565 3.22181 17.455 3.25848C15.63 3.86801 14.01 4.81668 12.63 6.07699C11.35 7.25023 10.365 8.62053 9.69497 10.1467C9.58997 10.385 9.59997 10.6599 9.72497 10.8937C9.84997 11.132 10.08 11.3153 10.355 11.3932L15.465 12.8368C15.565 12.8643 15.67 12.8781 15.77 12.8781C16.165 12.8781 16.525 12.6719 16.69 12.3511C16.98 11.7919 17.365 11.2924 17.84 10.8524C18.375 10.3621 19 9.97708 19.705 9.70669C20.185 9.52337 20.43 9.03758 20.285 8.5747L18.785 3.88176C18.665 3.48304 18.255 3.20348 17.8 3.20348ZM26.255 3.22181C25.81 3.22181 25.405 3.49679 25.27 3.89092L23.7 8.56095C23.545 9.02841 23.79 9.51879 24.28 9.70669C24.99 9.97708 25.62 10.3666 26.16 10.8616C26.835 11.4803 27.32 12.2181 27.605 13.0568C27.74 13.4464 28.13 13.7122 28.585 13.7122C28.685 13.7122 28.78 13.6984 28.875 13.6755L33.975 12.3052C34.24 12.2365 34.465 12.0669 34.595 11.8423C34.725 11.6224 34.755 11.3657 34.675 11.1274C34.045 9.23006 32.905 7.48854 31.37 6.08157C30.01 4.83501 28.405 3.89092 26.605 3.28139C26.49 3.24015 26.375 3.22181 26.255 3.22181ZM22 10.7699C20.865 10.7699 19.8 11.1732 18.995 11.9111C17.34 13.428 17.34 15.9028 18.995 17.4198C19.8 18.1576 20.865 18.5609 22 18.5609C23.135 18.5609 24.2 18.1576 25.005 17.4198C26.66 15.9028 26.66 13.428 25.005 11.9111C24.205 11.1778 23.14 10.7699 22 10.7699ZM28.575 15.6324C28.125 15.6324 27.73 15.8937 27.6 16.2878C27.315 17.1219 26.83 17.8598 26.155 18.4739C25.505 19.0697 24.735 19.505 23.855 19.7708C23.33 19.9313 23.04 20.44 23.2 20.9303L24.695 25.6095C24.825 26.0128 25.23 26.2924 25.685 26.2924C25.79 26.2924 25.89 26.2786 25.99 26.2511C28.01 25.6691 29.87 24.6334 31.37 23.2585C32.88 21.8744 34.015 20.1604 34.645 18.2951C34.725 18.0568 34.7 17.8048 34.57 17.5848C34.44 17.3602 34.225 17.1952 33.955 17.1173L28.88 15.6737C28.785 15.6462 28.68 15.6324 28.575 15.6324ZM15.695 16.297C15.595 16.297 15.495 16.3107 15.4 16.3382L10.285 17.7131C10.01 17.7864 9.77497 17.9652 9.64997 18.2035C9.52497 18.4372 9.50997 18.7076 9.60497 18.9459C10.27 20.5729 11.29 22.0211 12.635 23.2539C14.085 24.5829 15.795 25.5591 17.72 26.1595C17.825 26.1916 17.935 26.2099 18.045 26.2099C18.49 26.2099 18.895 25.9349 19.03 25.5408L20.6 20.8799C20.76 20.3987 20.49 19.89 19.985 19.7204C19.18 19.45 18.465 19.033 17.855 18.4739C17.345 18.0064 16.94 17.461 16.645 16.8515C16.475 16.517 16.105 16.297 15.695 16.297Z" fill="#424242"/>
<path opacity="0.2" d="M46.115 9.84878C46.27 9.84878 46.42 9.94502 46.465 10.0917L47.495 13.3181C47.545 13.4785 47.4599 13.6526 47.295 13.7168C46.7899 13.9139 46.315 14.1934 45.905 14.5738C45.54 14.9084 45.255 15.2887 45.045 15.692C44.985 15.8066 44.855 15.8754 44.72 15.8754C44.685 15.8754 44.645 15.8708 44.61 15.8616L41.095 14.8671C40.895 14.8121 40.78 14.6059 40.86 14.4271C41.29 13.4464 41.935 12.5298 42.8 11.7324C43.735 10.8754 44.825 10.2567 45.99 9.86711C46.035 9.85794 46.075 9.84878 46.115 9.84878ZM51.9249 9.86252C51.9649 9.86252 52.0049 9.86711 52.0449 9.88086C53.1949 10.2704 54.275 10.8845 55.2 11.7324C56.255 12.6994 56.9799 13.8497 57.3849 15.0688C57.4449 15.2429 57.3299 15.4308 57.1349 15.4812L53.63 16.4253C53.595 16.4345 53.56 16.4391 53.525 16.4391C53.37 16.4391 53.23 16.352 53.18 16.2099C52.975 15.6095 52.6199 15.0458 52.0999 14.5692C51.6849 14.1888 51.205 13.9047 50.695 13.7076C50.525 13.6435 50.4399 13.4647 50.495 13.3043L51.575 10.0963C51.625 9.95877 51.7699 9.86252 51.9249 9.86252ZM49 15.1238C49.64 15.1238 50.28 15.3483 50.77 15.7929C51.745 16.6865 51.745 18.1393 50.77 19.033C50.28 19.4821 49.64 19.7067 49 19.7067C48.36 19.7067 47.72 19.4821 47.23 19.0376C46.255 18.1439 46.255 16.6911 47.23 15.7974C47.72 15.3483 48.36 15.1238 49 15.1238ZM53.52 18.396C53.555 18.396 53.59 18.4006 53.63 18.4097L57.1199 19.3996C57.3099 19.4546 57.425 19.638 57.365 19.8167C56.955 21.0174 56.235 22.1494 55.2 23.0981C54.17 24.0422 52.9399 24.7021 51.6399 25.0779C51.6049 25.0871 51.57 25.0917 51.535 25.0917C51.38 25.0917 51.23 24.9954 51.185 24.8488L50.155 21.6315C50.0999 21.462 50.1999 21.2787 50.3849 21.2237C51.0099 21.0358 51.5999 20.715 52.0999 20.2567C52.6149 19.7846 52.9749 19.2209 53.1749 18.6251C53.2249 18.4831 53.365 18.396 53.52 18.396ZM44.665 18.8543C44.805 18.8543 44.94 18.9276 45 19.0468C45.21 19.4867 45.51 19.8992 45.905 20.2567C46.37 20.6829 46.915 20.9899 47.495 21.187C47.675 21.2466 47.765 21.4299 47.71 21.5949L46.63 24.7984C46.58 24.9404 46.435 25.0367 46.28 25.0367C46.245 25.0367 46.205 25.0321 46.165 25.0183C44.935 24.6334 43.78 23.9918 42.805 23.0935C41.895 22.2594 41.225 21.2832 40.8 20.2429C40.725 20.0642 40.84 19.8625 41.045 19.8075L44.565 18.8634C44.595 18.8589 44.63 18.8543 44.665 18.8543ZM46.115 9.39048C46.015 9.39048 45.92 9.40423 45.825 9.43631C44.55 9.86252 43.415 10.5271 42.45 11.407C41.555 12.2273 40.865 13.1852 40.4 14.253C40.31 14.4546 40.32 14.6838 40.425 14.8809C40.53 15.0825 40.72 15.2337 40.955 15.2979L44.47 16.2924C44.555 16.3153 44.64 16.3291 44.725 16.3291C45.055 16.3291 45.36 16.1549 45.5 15.8845C45.69 15.5179 45.945 15.1833 46.26 14.8946C46.615 14.5692 47.03 14.3172 47.49 14.1384C47.89 13.9826 48.1 13.5747 47.98 13.1897L46.95 9.96335C46.835 9.62879 46.495 9.39048 46.115 9.39048ZM51.9249 9.40423C51.5499 9.40423 51.2099 9.63338 51.0999 9.96793L50.02 13.176C49.89 13.5701 50.095 13.9826 50.505 14.1384C50.975 14.3172 51.39 14.5738 51.75 14.8992C52.195 15.3071 52.52 15.7974 52.705 16.352C52.815 16.682 53.145 16.9019 53.525 16.9019C53.61 16.9019 53.69 16.8928 53.77 16.8699L57.275 15.9258C57.495 15.8662 57.6849 15.7241 57.7949 15.5408C57.9049 15.3529 57.9299 15.1421 57.8599 14.9404C57.42 13.616 56.6199 12.3923 55.5499 11.4116C54.5949 10.5362 53.475 9.88086 52.215 9.45464C52.125 9.42256 52.025 9.40423 51.9249 9.40423ZM49 14.6655C48.2 14.6655 47.445 14.9496 46.88 15.4721C45.71 16.5445 45.71 18.2906 46.88 19.3584C47.445 19.8809 48.2 20.165 49 20.165C49.8 20.165 50.5549 19.8809 51.12 19.3584C52.2899 18.286 52.2899 16.5399 51.12 15.4721C50.5549 14.9542 49.8 14.6655 49 14.6655ZM53.52 17.9377C53.14 17.9377 52.81 18.1577 52.7 18.4876C52.51 19.0376 52.1899 19.5234 51.7449 19.9313C51.3149 20.3254 50.8049 20.6141 50.2249 20.7883C49.785 20.9212 49.54 21.3474 49.675 21.7599L50.705 24.9771C50.815 25.3162 51.155 25.55 51.535 25.55C51.62 25.55 51.705 25.5362 51.79 25.5133C53.2 25.1054 54.505 24.3813 55.5549 23.4189C56.6099 22.4519 57.405 21.2512 57.8449 19.9496C57.9149 19.7479 57.8899 19.5371 57.7849 19.3492C57.6749 19.1613 57.4949 19.0193 57.2699 18.9597L53.7799 17.9698C53.6949 17.9514 53.605 17.9377 53.52 17.9377ZM44.665 18.396C44.58 18.396 44.5 18.4051 44.415 18.4281L40.895 19.3721C40.665 19.4363 40.47 19.583 40.36 19.78C40.255 19.9771 40.24 20.2017 40.325 20.4033C40.79 21.5399 41.505 22.5527 42.445 23.4189C43.455 24.3446 44.655 25.0321 46 25.4491C46.09 25.4766 46.18 25.4904 46.275 25.4904C46.65 25.4904 46.99 25.2612 47.1 24.9313L48.18 21.7278C48.315 21.3245 48.085 20.8983 47.66 20.7516C47.13 20.5729 46.655 20.2979 46.255 19.9267C45.92 19.6196 45.65 19.2576 45.455 18.8543C45.32 18.5793 45.01 18.396 44.665 18.396Z" fill="#424242"/>
<defs>
<linearGradient id="paint0_linear_5_24" x1="15.999" y1="33.1686" x2="15.999" y2="45.6737" gradientUnits="userSpaceOnUse">
<stop stop-color="#29B6F6"/>
<stop offset="0.9957" stop-color="#0277BD"/>
</linearGradient>
<linearGradient id="paint1_linear_5_24" x1="6.9995" y1="26.2947" x2="6.9995" y2="50.9303" gradientUnits="userSpaceOnUse">
<stop stop-color="#29B6F6"/>
<stop offset="0.9957" stop-color="#0277BD"/>
</linearGradient>
<linearGradient id="paint2_linear_5_24" x1="20.932" y1="39.4124" x2="14.48" y2="39.4124" gradientUnits="userSpaceOnUse">
<stop stop-color="#0288D1"/>
<stop offset="1" stop-color="#0288D1" stop-opacity="0"/>
</linearGradient>
<radialGradient id="paint3_radial_5_24" cx="0" cy="0" r="1" gradientUnits="userSpaceOnUse" gradientTransform="translate(40.6415 26.1932) scale(30.4184 28.3265)">
<stop stop-color="#81D4FA"/>
<stop offset="1" stop-color="#039BE5"/>
</radialGradient>
<radialGradient id="paint4_radial_5_24" cx="0" cy="0" r="1" gradientUnits="userSpaceOnUse" gradientTransform="translate(22.19 0.74647) scale(30.8835 28.3075)">
<stop stop-color="#42A5F5"/>
<stop offset="0.9891" stop-color="#1565C0"/>
</radialGradient>
<radialGradient id="paint5_radial_5_24" cx="0" cy="0" r="1" gradientUnits="userSpaceOnUse" gradientTransform="translate(49.125 7.67783) scale(21.686 19.8772)">
<stop stop-color="#42A5F5"/>
<stop offset="0.9891" stop-color="#1565C0"/>
</radialGradient>
<linearGradient id="paint6_linear_5_24" x1="55" y1="43.8808" x2="55" y2="45.7195" gradientUnits="userSpaceOnUse">
<stop stop-color="#FF1744"/>
<stop offset="1" stop-color="#D50000"/>
</linearGradient>
<linearGradient id="paint7_linear_5_24" x1="55" y1="47.5481" x2="55" y2="49.3859" gradientUnits="userSpaceOnUse">
<stop stop-color="#76FF03"/>
<stop offset="1" stop-color="#64DD17"/>
</linearGradient>
</defs>
</svg>
